# xmcd
#
# Track frame offsets:
#	150
#	13652
#	27172
#	39670
#	54720
#	66010
#	83765
#	97750
#	113507
#	128872
#	147357
#	158195
#	174375
#	186582
#	202062
#	215337
#	229432
#	248345
#	261700
#	273002
#	286415
#	300107
#	313095
#
# Disc length: 4393 seconds
#
# Revision: 2
# Processed by: cddbd v1.5.1PL0 Copyright (c) Steve Scherf et al.
# Submitted via: audiograbber 1.83.01
#
DISCID=44112717
DTITLE=Xaris Alexioy - 23 TRAGOUDIA
DYEAR=1900
DGENRE=Blues
TTITLE0=MANTALIO - 23 TRAGOUDIA
TTITLE1=OUZO OTAN PIEIS - 23 TRAGOUDIA
TTITLE2=O DERBISIS KAI I ANNA - 23 TRAGOUDIA
TTITLE3=O BERBANDIS - 23 TRAGOUDIA
TTITLE4=STRIBE SPAGGO - 23 TRAGOUDIA
TTITLE5=TO MINORE TIS ABGIS - 23 TRAGOUDIA
TTITLE6=POULAKI KSENO - 23 TRAGOUDIA
TTITLE7=TH ARRWSTHSW MANA - 23 TRAGOUDIA
TTITLE8=MAYRIDEROULA - 23 TRAGOUDIA
TTITLE9=OMORFH POU NAI H LEIBADIA - 23 TRAGOUDIA
TTITLE10=MH XARAZEIS BLEFARO MOU - 23 TRAGOUDIA
TTITLE11=OI KYRIAKES STHN KATERINH - 23 TRAGOUDIA
TTITLE12=MONOS HSOUN PANDA - 23 TRAGOUDIA
TTITLE13=EN BELGIW - 23 TRAGOUDIA
TTITLE14=XRONIA XELIDONIA - 23 TRAGOUDIA
TTITLE15=XA8HKA - 23 TRAGOUDIA
TTITLE16=TO BLOKO THS KAISARIANHS - 23 TRAGOUDIA
TTITLE17=TO ANESTAKI - HARIS ALEKSIOU
TTITLE18=TI GLIKO NA S'AGAPOUN - 23 TRAGOUDIA
TTITLE19=SE PSAXNO - 23 TRAGOUDIA
TTITLE20=OLES TOU KOSMOU I KIRIAKES - 23 TRAGOUDIA
TTITLE21=TO KSERO PIA DEN M'AGAPAS - 23 TRAGOUDIA
TTITLE22=ODOS ARISTOTELOUS - 23 TRAGOUDIA
EXTD=
EXTT0=
EXTT1=
EXTT2=
EXTT3=
EXTT4=
EXTT5=
EXTT6=
EXTT7=
EXTT8=
EXTT9=
EXTT10=
EXTT11=
EXTT12=
EXTT13=
EXTT14=
EXTT15=
EXTT16=
EXTT17=
EXTT18=
EXTT19=
EXTT20=
EXTT21=
EXTT22=
PLAYORDER=
